<mxfile host="65bd71144e">
    <diagram id="X33I89pRzX6Kj_4CdDes" name="Page-1">
        <mxGraphModel dx="612" dy="1358" grid="1" gridSize="10" guides="1" tooltips="1" connect="1" arrows="1" fold="1" page="1" pageScale="1" pageWidth="850" pageHeight="1100" math="0" shadow="0">
            <root>
                <mxCell id="0"/>
                <mxCell id="1" parent="0"/>
                <mxCell id="2" value="Bank" style="swimlane;fontStyle=0;childLayout=stackLayout;horizontal=1;startSize=30;horizontalStack=0;resizeParent=1;resizeParentMax=0;resizeLast=0;collapsible=1;marginBottom=0;" vertex="1" parent="1">
                    <mxGeometry x="500" y="-70" width="290" height="200" as="geometry"/>
                </mxCell>
                <mxCell id="3" value="Name: str&#10;Address :  str" style="text;strokeColor=none;fillColor=none;align=left;verticalAlign=middle;spacingLeft=4;spacingRight=4;overflow=hidden;points=[[0,0.5],[1,0.5]];portConstraint=eastwest;rotatable=0;" vertex="1" parent="2">
                    <mxGeometry y="30" width="290" height="60" as="geometry"/>
                </mxCell>
                <mxCell id="4" value="__intit__(self, name : str, Address : str)&#10;Customers : list[Customer] = [ ]&#10;Accounts : list[Account] = [ ]" style="text;strokeColor=none;fillColor=none;align=left;verticalAlign=middle;spacingLeft=4;spacingRight=4;overflow=hidden;points=[[0,0.5],[1,0.5]];portConstraint=eastwest;rotatable=0;" vertex="1" parent="2">
                    <mxGeometry y="90" width="290" height="110" as="geometry"/>
                </mxCell>
                <mxCell id="6" value="Customer" style="swimlane;fontStyle=0;childLayout=stackLayout;horizontal=1;startSize=30;horizontalStack=0;resizeParent=1;resizeParentMax=0;resizeLast=0;collapsible=1;marginBottom=0;" vertex="1" parent="1">
                    <mxGeometry x="100" y="240" width="340" height="200" as="geometry"/>
                </mxCell>
                <mxCell id="7" value="Name: str&#10;Address :  str&#10;Cust_id : int" style="text;strokeColor=none;fillColor=none;align=left;verticalAlign=middle;spacingLeft=4;spacingRight=4;overflow=hidden;points=[[0,0.5],[1,0.5]];portConstraint=eastwest;rotatable=0;" vertex="1" parent="6">
                    <mxGeometry y="30" width="340" height="60" as="geometry"/>
                </mxCell>
                <mxCell id="8" value="__intit__(self, name : str, Address : str, Cust_id : int)&#10;&#10;+__str__() : str" style="text;strokeColor=none;fillColor=none;align=left;verticalAlign=middle;spacingLeft=4;spacingRight=4;overflow=hidden;points=[[0,0.5],[1,0.5]];portConstraint=eastwest;rotatable=0;" vertex="1" parent="6">
                    <mxGeometry y="90" width="340" height="110" as="geometry"/>
                </mxCell>
                <mxCell id="13" value="Accounts" style="swimlane;fontStyle=0;childLayout=stackLayout;horizontal=1;startSize=30;horizontalStack=0;resizeParent=1;resizeParentMax=0;resizeLast=0;collapsible=1;marginBottom=0;" vertex="1" parent="1">
                    <mxGeometry x="500" y="240" width="380" height="200" as="geometry"/>
                </mxCell>
                <mxCell id="14" value="Account_number: int&#10; Current Balance: float&#10;Type : str" style="text;strokeColor=none;fillColor=none;align=left;verticalAlign=middle;spacingLeft=4;spacingRight=4;overflow=hidden;points=[[0,0.5],[1,0.5]];portConstraint=eastwest;rotatable=0;" vertex="1" parent="13">
                    <mxGeometry y="30" width="380" height="60" as="geometry"/>
                </mxCell>
                <mxCell id="15" value="__intit__(self, Account_number : int, Current Balance : float, Type: str)&#10;&#10;+__str__() : str&#10;" style="text;strokeColor=none;fillColor=none;align=left;verticalAlign=middle;spacingLeft=4;spacingRight=4;overflow=hidden;points=[[0,0.5],[1,0.5]];portConstraint=eastwest;rotatable=0;" vertex="1" parent="13">
                    <mxGeometry y="90" width="380" height="110" as="geometry"/>
                </mxCell>
                <mxCell id="16" value="Administration" style="swimlane;fontStyle=0;childLayout=stackLayout;horizontal=1;startSize=30;horizontalStack=0;resizeParent=1;resizeParentMax=0;resizeLast=0;collapsible=1;marginBottom=0;" vertex="1" parent="1">
                    <mxGeometry x="930" y="240" width="230" height="200" as="geometry"/>
                </mxCell>
                <mxCell id="17" value="Accounts : list[Account] = [ ]" style="text;strokeColor=none;fillColor=none;align=left;verticalAlign=middle;spacingLeft=4;spacingRight=4;overflow=hidden;points=[[0,0.5],[1,0.5]];portConstraint=eastwest;rotatable=0;" vertex="1" parent="16">
                    <mxGeometry y="30" width="230" height="60" as="geometry"/>
                </mxCell>
                <mxCell id="18" value="__intit__(self, Account: list[Account])&#10;&#10;&#10;+__str__() : str&#10;&#10;search_account : int&#10;&#10;displayAll&#10;&#10;&#10;" style="text;strokeColor=none;fillColor=none;align=left;verticalAlign=middle;spacingLeft=4;spacingRight=4;overflow=hidden;points=[[0,0.5],[1,0.5]];portConstraint=eastwest;rotatable=0;" vertex="1" parent="16">
                    <mxGeometry y="90" width="230" height="110" as="geometry"/>
                </mxCell>
                <mxCell id="19" value="" style="edgeStyle=segmentEdgeStyle;endArrow=classic;html=1;entryX=0.386;entryY=0.008;entryDx=0;entryDy=0;entryPerimeter=0;startArrow=none;" edge="1" parent="1" source="20" target="6">
                    <mxGeometry width="50" height="50" relative="1" as="geometry">
                        <mxPoint x="660" y="270" as="sourcePoint"/>
                        <mxPoint x="210" y="110" as="targetPoint"/>
                    </mxGeometry>
                </mxCell>
                <mxCell id="20" value="" style="line;strokeWidth=4;direction=south;html=1;perimeter=backbonePerimeter;points=[];outlineConnect=0;" vertex="1" parent="1">
                    <mxGeometry x="610" y="130" width="10" height="50" as="geometry"/>
                </mxCell>
                <mxCell id="21" value="" style="edgeStyle=segmentEdgeStyle;endArrow=none;html=1;exitX=0.375;exitY=1.156;exitDx=0;exitDy=0;exitPerimeter=0;entryX=0.386;entryY=0.008;entryDx=0;entryDy=0;entryPerimeter=0;" edge="1" parent="1" source="4" target="20">
                    <mxGeometry width="50" height="50" relative="1" as="geometry">
                        <mxPoint x="608.75" y="147.16000000000008" as="sourcePoint"/>
                        <mxPoint x="231.24" y="241.5999999999999" as="targetPoint"/>
                    </mxGeometry>
                </mxCell>
            </root>
        </mxGraphModel>
    </diagram>
</mxfile>